<svg xmlns="http://www.w3.org/2000/svg" xmlns:xlink="http://www.w3.org/1999/xlink" width="1000" zoomAndPan="magnify" viewBox="0 0 750 749.999995" height="1000" preserveAspectRatio="xMidYMid meet" version="1.0"><defs><g/><clipPath id="171f63a52d"><path d="M 18 487 L 732 487 L 732 639.566406 L 18 639.566406 Z M 18 487 " clip-rule="nonzero"/></clipPath><clipPath id="cb5e06400c"><path d="M 311 110.066406 L 672 110.066406 L 672 465 L 311 465 Z M 311 110.066406 " clip-rule="nonzero"/></clipPath><clipPath id="c88c260096"><path d="M 78 110.066406 L 439 110.066406 L 439 465 L 78 465 Z M 78 110.066406 " clip-rule="nonzero"/></clipPath><clipPath id="f559705460"><path d="M 75 110 L 675 110 L 675 467.507812 L 75 467.507812 Z M 75 110 " clip-rule="nonzero"/></clipPath><clipPath id="02d37d449f"><path d="M 110.25 110.066406 L 639.75 110.066406 C 659.21875 110.066406 675 125.847656 675 145.316406 L 675 432.257812 C 675 451.726562 659.21875 467.507812 639.75 467.507812 L 110.25 467.507812 C 90.78125 467.507812 75 451.726562 75 432.257812 L 75 145.316406 C 75 125.847656 90.78125 110.066406 110.25 110.066406 Z M 110.25 110.066406 " clip-rule="nonzero"/></clipPath><clipPath id="696782a090"><path d="M 0 0 L 600 0 L 600 357.507812 L 0 357.507812 Z M 0 0 " clip-rule="nonzero"/></clipPath><clipPath id="63c678d1f4"><path d="M 35.25 0.0664062 L 564.75 0.0664062 C 584.21875 0.0664062 600 15.847656 600 35.316406 L 600 322.257812 C 600 341.726562 584.21875 357.507812 564.75 357.507812 L 35.25 357.507812 C 15.78125 357.507812 0 341.726562 0 322.257812 L 0 35.316406 C 0 15.847656 15.78125 0.0664062 35.25 0.0664062 Z M 35.25 0.0664062 " clip-rule="nonzero"/></clipPath><clipPath id="7cd4322103"><rect x="0" width="600" y="0" height="358"/></clipPath><clipPath id="41bf617aff"><path d="M 75.007812 110.066406 L 675 110.066406 L 675 467.816406 L 75.007812 467.816406 Z M 75.007812 110.066406 " clip-rule="nonzero"/></clipPath><clipPath id="6440576212"><path d="M 110.253906 110.066406 L 639.746094 110.066406 C 659.210938 110.066406 674.992188 125.847656 674.992188 145.316406 L 674.992188 432.25 C 674.992188 451.71875 659.210938 467.5 639.746094 467.5 L 110.253906 467.5 C 90.789062 467.5 75.007812 451.71875 75.007812 432.25 L 75.007812 145.316406 C 75.007812 125.847656 90.789062 110.066406 110.253906 110.066406 Z M 110.253906 110.066406 " clip-rule="nonzero"/></clipPath></defs><g clip-path="url(#171f63a52d)"><path fill="#ff6d4d" d="M 730.878906 622.800781 L 681.257812 501.691406 C 677.691406 492.960938 669.167969 487.25 659.722656 487.25 L 90.273438 487.25 C 80.828125 487.25 72.304688 492.960938 68.738281 501.691406 L 19.117188 622.800781 C 15.761719 630.988281 21.761719 639.929688 30.621094 639.929688 L 719.417969 639.929688 C 728.234375 639.929688 734.238281 630.988281 730.921875 622.800781 Z M 432.824219 618.015625 L 317.128906 618.015625 C 311.167969 618.015625 306.300781 613.1875 306.300781 607.183594 C 306.300781 601.183594 311.128906 596.355469 317.128906 596.355469 L 432.824219 596.355469 C 438.785156 596.355469 443.65625 601.183594 443.65625 607.183594 C 443.65625 613.1875 438.828125 618.015625 432.824219 618.015625 Z M 432.824219 618.015625 " fill-opacity="1" fill-rule="nonzero"/></g><g clip-path="url(#cb5e06400c)"><path fill="#ff6d4d" d="M 629.246094 136.050781 C 641.628906 136.050781 651.621094 145.832031 651.621094 157.878906 L 651.621094 417.0625 C 651.621094 429.109375 641.589844 438.890625 629.246094 438.890625 L 474.382812 438.890625 L 405.328125 369.832031 C 401.84375 366.347656 400.542969 361.226562 401.886719 356.441406 C 405.496094 343.554688 404.152344 330.582031 397.101562 323.574219 C 387.488281 313.960938 361.921875 302.707031 349.414062 304.09375 L 377.078125 331.757812 L 365.195312 357.871094 L 339.085938 369.75 L 311.421875 342.085938 C 310.035156 354.59375 321.285156 380.160156 330.898438 389.773438 C 337.953125 396.828125 350.921875 398.167969 363.769531 394.558594 C 368.554688 393.214844 373.675781 394.519531 377.160156 398.003906 L 443.992188 464.832031 L 645.785156 464.832031 C 659.890625 464.832031 671.308594 453.414062 671.308594 439.308594 L 671.308594 135.757812 C 671.308594 121.652344 659.890625 110.234375 645.785156 110.234375 L 331.023438 110.234375 L 356.925781 136.175781 L 629.164062 136.175781 Z M 629.246094 136.050781 " fill-opacity="1" fill-rule="nonzero"/></g><g clip-path="url(#c88c260096)"><path fill="#ff6d4d" d="M 104.125 464.792969 L 418.886719 464.792969 L 392.945312 438.847656 L 120.707031 438.847656 C 108.324219 438.847656 98.332031 429.066406 98.332031 417.019531 L 98.332031 157.839844 C 98.332031 145.789062 108.367188 136.007812 120.707031 136.007812 L 275.570312 136.007812 L 344.625 205.066406 C 348.109375 208.550781 349.410156 213.671875 348.070312 218.457031 C 344.457031 231.34375 345.800781 244.316406 352.855469 251.324219 C 362.46875 260.9375 388.03125 272.191406 400.542969 270.804688 L 372.878906 243.140625 L 384.757812 217.027344 L 410.871094 205.148438 L 438.535156 232.8125 C 439.917969 220.304688 428.667969 194.738281 419.054688 185.125 C 412.003906 178.070312 399.03125 176.730469 386.1875 180.339844 C 381.398438 181.683594 376.277344 180.382812 372.792969 176.898438 L 305.964844 110.066406 L 104.167969 110.066406 C 90.0625 110.066406 78.644531 121.484375 78.644531 135.589844 L 78.644531 439.140625 C 78.644531 453.246094 90.0625 464.664062 104.167969 464.664062 Z M 104.125 464.792969 " fill-opacity="1" fill-rule="nonzero"/></g><g clip-path="url(#f559705460)"><g clip-path="url(#02d37d449f)"><g transform="matrix(1, 0, 0, 1, 75, 110)"><g clip-path="url(#7cd4322103)"><g clip-path="url(#696782a090)"><g clip-path="url(#63c678d1f4)"><path fill="#ffffff" d="M 0 0.0664062 L 600.390625 0.0664062 L 600.390625 357.507812 L 0 357.507812 Z M 0 0.0664062 " fill-opacity="1" fill-rule="nonzero"/></g></g></g></g></g></g><g clip-path="url(#41bf617aff)"><g clip-path="url(#6440576212)"><path stroke-linecap="butt" transform="matrix(0.75, 0, 0, 0.75, 75.006313, 110.065685)" fill="none" stroke-linejoin="miter" d="M 46.996793 0.000961619 L 752.986411 0.000961619 C 778.939537 0.000961619 799.981204 21.042629 799.981204 47.000964 L 799.981204 429.579108 C 799.981204 455.537442 778.939537 476.57911 752.986411 476.57911 L 46.996793 476.57911 C 21.043666 476.57911 0.00199881 455.537442 0.00199881 429.579108 L 0.00199881 47.000964 C 0.00199881 21.042629 21.043666 0.000961619 46.996793 0.000961619 Z M 46.996793 0.000961619 " stroke="#ff6d4d" stroke-width="90" stroke-opacity="1" stroke-miterlimit="4"/></g></g><g fill="#ff6d4d" fill-opacity="1"><g transform="translate(277.50286, 396.256803)"><g><path d="M 149.125 -214.15625 L 194.96875 -214.15625 L 122.171875 0 L 72.65625 0 L 0 -214.15625 L 45.84375 -214.15625 L 86.140625 -86.71875 C 88.378906 -79.195312 90.695312 -70.429688 93.09375 -60.421875 C 95.488281 -50.410156 96.976562 -43.453125 97.5625 -39.546875 C 98.632812 -48.535156 102.296875 -64.257812 108.546875 -86.71875 Z M 149.125 -214.15625 "/></g></g></g></svg>